<svg width="40" height="31" viewBox="0 0 40 31" fill="none" xmlns="http://www.w3.org/2000/svg">
<path fill-rule="evenodd" clip-rule="evenodd" d="M0.580444 13.7054C0.580444 12.9904 1.16008 12.4107 1.87509 12.4107H38.1251C38.8401 12.4107 39.4197 12.9904 39.4197 13.7054C39.4197 14.4204 38.8401 15 38.1251 15H1.87509C1.16008 15 0.580444 14.4204 0.580444 13.7054Z" fill="#AAAAAA"/>
<path fill-rule="evenodd" clip-rule="evenodd" d="M29.0626 22.7679C29.7776 22.7679 30.3572 23.3475 30.3572 24.0625V27.9464H34.2412V24.0625C34.2412 23.3475 34.8208 22.7679 35.5358 22.7679C36.2508 22.7679 36.8304 23.3475 36.8304 24.0625V27.9464C36.8304 28.6332 36.5576 29.2918 36.0721 29.7773C35.5865 30.2629 34.9279 30.5357 34.2412 30.5357H30.3572C29.6705 30.5357 29.0119 30.2629 28.5263 29.7773C28.0407 29.2918 27.7679 28.6332 27.7679 27.9464V24.0625C27.7679 23.3475 28.3476 22.7679 29.0626 22.7679Z" fill="#AAAAAA"/>
<path fill-rule="evenodd" clip-rule="evenodd" d="M4.46437 22.7679C5.17938 22.7679 5.75902 23.3475 5.75902 24.0625V27.9464H9.64294V24.0625C9.64294 23.3475 10.2226 22.7679 10.9376 22.7679C11.6526 22.7679 12.2322 23.3475 12.2322 24.0625V27.9464C12.2322 28.6332 11.9594 29.2918 11.4738 29.7773C10.9883 30.2629 10.3297 30.5357 9.64294 30.5357H5.75902C5.0723 30.5357 4.4137 30.2629 3.92811 29.7773C3.44253 29.2918 3.16973 28.6332 3.16973 27.9464V24.0625C3.16973 23.3475 3.74936 22.7679 4.46437 22.7679Z" fill="#AAAAAA"/>
<path fill-rule="evenodd" clip-rule="evenodd" d="M8.3483 18.8839C8.3483 18.1689 8.92793 17.5893 9.64294 17.5893H12.2322C12.9472 17.5893 13.5269 18.1689 13.5269 18.8839C13.5269 19.599 12.9472 20.1786 12.2322 20.1786H9.64294C8.92793 20.1786 8.3483 19.599 8.3483 18.8839Z" fill="#AAAAAA"/>
<path fill-rule="evenodd" clip-rule="evenodd" d="M26.4733 18.8839C26.4733 18.1689 27.0529 17.5893 27.7679 17.5893H30.3572C31.0722 17.5893 31.6519 18.1689 31.6519 18.8839C31.6519 19.599 31.0722 20.1786 30.3572 20.1786H27.7679C27.0529 20.1786 26.4733 19.599 26.4733 18.8839Z" fill="#AAAAAA"/>
<path fill-rule="evenodd" clip-rule="evenodd" d="M10.4845 0.758942H29.5209C30.023 0.76097 30.5136 0.908896 30.9331 1.18473C31.3511 1.4596 31.6805 1.84969 31.8816 2.30777C31.8823 2.30935 31.8829 2.31094 31.8836 2.31252L36.7186 13.1791C36.7924 13.3447 36.8304 13.524 36.8304 13.7054V24.0625C36.8304 24.7775 36.2508 25.3572 35.5358 25.3572H4.46437C3.74936 25.3572 3.16973 24.7775 3.16973 24.0625V13.7054C3.16973 13.524 3.20782 13.3447 3.28153 13.1791L8.11871 2.30756C8.31973 1.84957 8.64911 1.45956 9.0671 1.18473C9.48659 0.908896 9.97721 0.76097 10.4793 0.758952L10.4845 0.758942ZM10.4897 3.34823L10.486 3.35668L5.75902 13.9804V22.7679H34.2412V13.9804L29.5105 3.34823L10.4897 3.34823Z" fill="#AAAAAA"/>
</svg>
