<svg width="8" height="6" viewBox="0 0 8 6" fill="none" xmlns="http://www.w3.org/2000/svg">
<path d="M7.70711 1.70711C8.09763 1.31658 8.09763 0.683417 7.70711 0.292893C7.31658 -0.0976311 6.68342 -0.0976311 6.29289 0.292893L7.70711 1.70711ZM3 5L2.29289 5.70711C2.68342 6.09763 3.31658 6.09763 3.70711 5.70711L3 5ZM1.70711 2.29289C1.31658 1.90237 0.683417 1.90237 0.292893 2.29289C-0.0976311 2.68342 -0.0976311 3.31658 0.292893 3.70711L1.70711 2.29289ZM6.29289 0.292893L2.29289 4.29289L3.70711 5.70711L7.70711 1.70711L6.29289 0.292893ZM3.70711 4.29289L1.70711 2.29289L0.292893 3.70711L2.29289 5.70711L3.70711 4.29289Z" fill="white"/>
</svg>
