<svg width="64" height="64" viewBox="0 0 64 64" fill="none" xmlns="http://www.w3.org/2000/svg">
<g opacity="0.06">
<rect width="64" height="64" rx="16" fill="#19AAE1"/>
</g>
<path d="M27.0877 30.535L32.6111 36.3636C33.2099 36.9955 34.2945 37.0857 35.5027 36.4902C38.5777 35.2154 39.6007 34.9046 40.1848 35.5209L46.534 42.2208C47.2846 43.0128 47.0843 44.332 46.245 45.2176C41.887 49.8163 34.8037 49.8163 30.4458 45.2176L18.5851 32.7019C14.249 28.1262 14.249 20.7237 18.5851 16.1481C19.4421 15.2438 20.7581 15.0212 21.5369 15.8431L27.8862 22.543C28.4365 23.1237 28.1414 24.2053 26.9399 27.4281C26.3814 28.6861 26.4709 29.8842 27.0877 30.535Z" fill="#19AAE1"/>
</svg>
