<svg width="64" height="64" viewBox="0 0 64 64" fill="none" xmlns="http://www.w3.org/2000/svg">
<g opacity="0.06">
<rect width="64" height="64" rx="16" fill="#19AAE1"/>
</g>
<path fill-rule="evenodd" clip-rule="evenodd" d="M48.933 27.7826V42.8335C48.933 45.9263 46.4258 48.4335 43.333 48.4335H20.933C17.8402 48.4335 15.333 45.9263 15.333 42.8335V27.7826C15.333 27.0015 15.7161 26.2699 16.3585 25.8229L20.4482 22.9767C20.8108 22.7244 21.3094 22.8138 21.5618 23.1764C21.8142 23.5391 21.7248 24.0376 21.3621 24.29L17.2724 27.1361C17.0628 27.282 16.9371 27.518 16.9331 27.7702C17.1833 27.6818 17.4525 27.6337 17.733 27.6337C18.161 27.6337 18.5812 27.7481 18.9501 27.9652L32.133 35.7219L45.3159 27.9652C45.9513 27.5914 46.6882 27.5433 47.3329 27.7709C47.3291 27.5184 47.2034 27.2822 46.9936 27.1361L43.021 24.3715C42.6583 24.1191 42.5689 23.6205 42.8213 23.2579C43.0737 22.8952 43.5723 22.8058 43.9349 23.0582L47.9075 25.8229C48.5499 26.2699 48.933 27.0015 48.933 27.7826Z" fill="#19AAE1"/>
<path fill-rule="evenodd" clip-rule="evenodd" d="M20.333 27.3333V19.3333C20.333 17.1242 22.1239 15.3333 24.333 15.3333H40.333C42.5421 15.3333 44.333 17.1242 44.333 19.3333V27.3333L32.333 34.5333L20.333 27.3333ZM27.533 23.3333H37.133C37.5748 23.3333 37.933 22.9751 37.933 22.5333C37.933 22.0915 37.5748 21.7333 37.133 21.7333H27.533C27.0912 21.7333 26.733 22.0915 26.733 22.5333C26.733 22.9751 27.0912 23.3333 27.533 23.3333ZM37.933 27.3333C37.933 27.7751 37.5748 28.1333 37.133 28.1333H27.533C27.0912 28.1333 26.733 27.7751 26.733 27.3333C26.733 26.8915 27.0912 26.5333 27.533 26.5333H37.133C37.5748 26.5333 37.933 26.8915 37.933 27.3333Z" fill="#B8D0F3"/>
</svg>
