<svg width="64" height="64" viewBox="0 0 64 64" fill="none" xmlns="http://www.w3.org/2000/svg">
<g opacity="0.06">
<rect width="64" height="64" rx="16" fill="#19AAE1"/>
</g>
<path fill-rule="evenodd" clip-rule="evenodd" d="M22.5335 26.1905C29.6213 27.1908 35.1651 24.6074 39.0256 18.4751C39.045 18.4443 39.0627 18.4128 39.0787 18.3807C40.5644 20.0525 41.4669 22.2542 41.4669 24.6667V28.1333C41.4669 31.637 39.5457 34.7867 36.5675 36.4276C36.1795 36.158 35.7081 36 35.1998 36C33.8743 36 32.7998 37.0745 32.7998 38.4C32.7998 39.7255 33.8743 40.8 35.1998 40.8C35.8711 40.8 36.478 40.5244 36.9136 40.0802C36.2646 42.119 34.3101 43.6 31.9998 43.6C29.1617 43.6 26.8605 41.3649 26.857 38.6064L27.6158 36.5258C24.5336 34.9147 22.5335 31.7082 22.5335 28.1333V26.1905V26.1905ZM22.5523 24.0658C22.8622 19.1175 26.9737 15.2 32.0002 15.2C34.1187 15.2 36.0747 15.8959 37.652 17.0716C37.6036 17.1214 37.5591 17.1779 37.5194 17.2408C34.045 22.7599 29.1342 25.0259 22.6453 24.0741C22.6141 24.0696 22.5831 24.0668 22.5523 24.0658H22.5523ZM24.8808 39.6536C25.4035 43.0197 28.3917 45.6 31.9998 45.6C35.6087 45.6 38.5974 43.0187 39.1191 39.6515L42.9554 40.425C44.4793 40.7223 45.6935 41.8746 46.07 43.3809L47.1763 47.806C47.3025 48.3109 46.9207 48.8 46.4002 48.8H17.6002C17.0797 48.8 16.6979 48.3109 16.8241 47.806L17.9289 43.3866C18.3064 41.8767 19.5255 40.7228 21.0462 40.4303L24.8808 39.6536V39.6536Z" fill="#19AAE1"/>
<path opacity="0.3" fill-rule="evenodd" clip-rule="evenodd" d="M35.2004 39.2C35.6422 39.2 36.0004 38.8418 36.0004 38.4C36.0004 37.9581 35.6422 37.6 35.2004 37.6C34.7586 37.6 34.4004 37.9581 34.4004 38.4C34.4004 38.8418 34.7586 39.2 35.2004 39.2Z" fill="#19AAE1"/>
<path opacity="0.3" fill-rule="evenodd" clip-rule="evenodd" d="M42.9708 23.2H43.2001C44.5256 23.2 45.6001 24.2745 45.6001 25.6V28.8C45.6001 30.1255 44.5256 31.2 43.2001 31.2H42.6348C42.9177 30.2182 43.0671 29.1877 43.0671 28.1333V24.6667C43.0671 24.1694 43.0343 23.6799 42.9708 23.2Z" fill="#19AAE1"/>
<path opacity="0.3" fill-rule="evenodd" clip-rule="evenodd" d="M21.3665 31.2H20.8004C19.4749 31.2 18.4004 30.1255 18.4004 28.8V25.6C18.4004 24.2745 19.4749 23.2 20.8004 23.2H21.0305C20.9669 23.6799 20.9341 24.1694 20.9341 24.6667V28.1333C20.9341 29.1877 21.0836 30.2182 21.3665 31.2V31.2Z" fill="#19AAE1"/>
</svg>
