<svg width="16" height="17" viewBox="0 0 16 17" fill="none" xmlns="http://www.w3.org/2000/svg">
<path fill-rule="evenodd" clip-rule="evenodd" d="M10.2812 0.78125C10.6092 0.78125 10.875 1.04708 10.875 1.375V4.9375H14.4375C14.7654 4.9375 15.0312 5.20333 15.0312 5.53125C15.0312 5.85917 14.7654 6.125 14.4375 6.125H10.2812C9.95333 6.125 9.6875 5.85917 9.6875 5.53125V1.375C9.6875 1.04708 9.95333 0.78125 10.2812 0.78125Z" fill="#F87575"/>
<path fill-rule="evenodd" clip-rule="evenodd" d="M2.31656 1.12906C2.53926 0.906362 2.84131 0.78125 3.15625 0.78125H10.2812C10.4387 0.78125 10.5897 0.843806 10.7011 0.955155L14.8573 5.11141C14.9687 5.22276 15.0312 5.37378 15.0312 5.53125V15.0312C15.0312 15.3462 14.9061 15.6482 14.6834 15.8709C14.4607 16.0936 14.1587 16.2188 13.8438 16.2188H12.0625C11.7346 16.2188 11.4688 15.9529 11.4688 15.625C11.4688 15.2971 11.7346 15.0312 12.0625 15.0312H13.8438V5.77719L10.0353 1.96875L3.15625 1.96875V8.5C3.15625 8.82792 2.89042 9.09375 2.5625 9.09375C2.23458 9.09375 1.96875 8.82792 1.96875 8.5V1.96875C1.96875 1.65381 2.09386 1.35176 2.31656 1.12906Z" fill="#F87575"/>
<path fill-rule="evenodd" clip-rule="evenodd" d="M5.53871 8.79378C6.24391 8.50167 7.01991 8.42524 7.76855 8.57416C8.5172 8.72307 9.20487 9.09064 9.74462 9.63039C10.2844 10.1701 10.6519 10.8578 10.8008 11.6065C10.9498 12.3551 10.8733 13.1311 10.5812 13.8363C10.2891 14.5415 9.79445 15.1443 9.15978 15.5683C8.52511 15.9924 7.77894 16.2188 7.01562 16.2188H3.45312C2.7445 16.2188 2.0649 15.9373 1.56382 15.4362C1.06275 14.9351 0.78125 14.2555 0.78125 13.5469C0.78125 12.8383 1.06275 12.1586 1.56382 11.6576C2.0649 11.1565 2.7445 10.875 3.45312 10.875C3.54886 10.6452 3.66705 10.4242 3.80667 10.2152C4.23075 9.58055 4.8335 9.08589 5.53871 8.79378ZM4.43231 11.6772C4.44357 11.6472 4.45246 11.616 4.45877 11.5839C4.53464 11.3337 4.64723 11.0947 4.79404 10.875C5.08763 10.4356 5.50492 10.0931 5.99314 9.89089C6.48136 9.68866 7.01859 9.63575 7.53688 9.73884C8.05518 9.84194 8.53126 10.0964 8.90493 10.4701C9.27859 10.8437 9.53307 11.3198 9.63616 11.8381C9.73926 12.3564 9.68634 12.8936 9.48412 13.3819C9.28189 13.8701 8.93943 14.2874 8.50004 14.581C8.06065 14.8745 7.54407 15.0313 7.01562 15.0313H3.45312C3.05944 15.0313 2.68189 14.8749 2.40351 14.5965C2.12514 14.3181 1.96875 13.9406 1.96875 13.5469C1.96875 13.1532 2.12514 12.7756 2.40351 12.4973C2.61313 12.2876 2.87899 12.1472 3.16562 12.0906C3.15939 12.1799 3.15625 12.2695 3.15625 12.3594C3.15625 12.6873 3.42208 12.9531 3.75 12.9531C4.07792 12.9531 4.34375 12.6873 4.34375 12.3594C4.34375 12.1279 4.37382 11.8986 4.43231 11.6772Z" fill="#F87575"/>
</svg>
