<svg width="21" height="21" viewBox="0 0 21 21" fill="none" xmlns="http://www.w3.org/2000/svg">
<path fill-rule="evenodd" clip-rule="evenodd" d="M3.66567 2.35317C3.91181 2.10703 4.24565 1.96875 4.59375 1.96875H12.4688C12.6428 1.96875 12.8097 2.03789 12.9328 2.16096L17.5265 6.75471C17.6496 6.87778 17.7188 7.0447 17.7188 7.21875V17.7188C17.7188 18.0668 17.5805 18.4007 17.3343 18.6468C17.0882 18.893 16.7543 19.0312 16.4062 19.0312H4.59375C4.24565 19.0312 3.91181 18.893 3.66567 18.6468C3.41953 18.4007 3.28125 18.0668 3.28125 17.7188V3.28125C3.28125 2.93315 3.41953 2.59931 3.66567 2.35317ZM12.1969 3.28125L4.59375 3.28125L4.59375 17.7188H16.4062V7.49058L12.1969 3.28125Z" fill="#F87575"/>
<path fill-rule="evenodd" clip-rule="evenodd" d="M12.4688 1.96875C12.8312 1.96875 13.125 2.26256 13.125 2.625V6.5625H17.0625C17.4249 6.5625 17.7188 6.85631 17.7188 7.21875C17.7188 7.58119 17.4249 7.875 17.0625 7.875H12.4688C12.1063 7.875 11.8125 7.58119 11.8125 7.21875V2.625C11.8125 2.26256 12.1063 1.96875 12.4688 1.96875Z" fill="#F87575"/>
<path fill-rule="evenodd" clip-rule="evenodd" d="M7.875 12.4688C7.875 12.1063 8.16881 11.8125 8.53125 11.8125H12.4688C12.8312 11.8125 13.125 12.1063 13.125 12.4688C13.125 12.8312 12.8312 13.125 12.4688 13.125H8.53125C8.16881 13.125 7.875 12.8312 7.875 12.4688Z" fill="#F87575"/>
</svg>
