<svg width="21" height="21" viewBox="0 0 21 21" fill="none" xmlns="http://www.w3.org/2000/svg">
<path fill-rule="evenodd" clip-rule="evenodd" d="M3.66567 2.35317C3.91181 2.10703 4.24565 1.96875 4.59375 1.96875H12.4688C12.6428 1.96875 12.8097 2.03789 12.9328 2.16096L17.5265 6.75471C17.6496 6.87778 17.7188 7.0447 17.7188 7.21875V17.7188C17.7188 18.0668 17.5805 18.4007 17.3343 18.6468C17.0882 18.893 16.7543 19.0312 16.4062 19.0312H4.59375C4.24565 19.0312 3.91181 18.893 3.66567 18.6468C3.41953 18.4007 3.28125 18.0668 3.28125 17.7188V3.28125C3.28125 2.93315 3.41953 2.59931 3.66567 2.35317ZM12.1969 3.28125L4.59375 3.28125L4.59375 17.7188H16.4062V7.49058L12.1969 3.28125Z" fill="#F87575"/>
<path fill-rule="evenodd" clip-rule="evenodd" d="M12.4688 1.96875C12.8312 1.96875 13.125 2.26256 13.125 2.625V6.5625H17.0625C17.4249 6.5625 17.7188 6.85631 17.7188 7.21875C17.7188 7.58119 17.4249 7.875 17.0625 7.875H12.4688C12.1063 7.875 11.8125 7.58119 11.8125 7.21875V2.625C11.8125 2.26256 12.1063 1.96875 12.4688 1.96875Z" fill="#F87575"/>
<path fill-rule="evenodd" clip-rule="evenodd" d="M11.3321 13.3008C11.5884 13.0445 12.0039 13.0445 12.2602 13.3008L13.5727 14.6133C13.829 14.8696 13.829 15.2851 13.5727 15.5414C13.3164 15.7976 12.9009 15.7976 12.6446 15.5414L11.3321 14.2289C11.0758 13.9726 11.0758 13.5571 11.3321 13.3008Z" fill="#F87575"/>
<path fill-rule="evenodd" clip-rule="evenodd" d="M10.1719 10.5C9.26578 10.5 8.53125 11.2345 8.53125 12.1406C8.53125 13.0467 9.26578 13.7812 10.1719 13.7812C11.078 13.7812 11.8125 13.0467 11.8125 12.1406C11.8125 11.2345 11.078 10.5 10.1719 10.5ZM7.21875 12.1406C7.21875 10.5097 8.54091 9.1875 10.1719 9.1875C11.8028 9.1875 13.125 10.5097 13.125 12.1406C13.125 13.7716 11.8028 15.0938 10.1719 15.0938C8.54091 15.0938 7.21875 13.7716 7.21875 12.1406Z" fill="#F87575"/>
</svg>
