<svg width="21" height="21" viewBox="0 0 21 21" fill="none" xmlns="http://www.w3.org/2000/svg">
<path d="M3.5 17.5H17.5" stroke="#AAAAAA" stroke-width="1.5" stroke-linecap="round" stroke-linejoin="round"/>
<path d="M7 17.5001V18.2501C7.19891 18.2501 7.38968 18.1711 7.53033 18.0304L7 17.5001ZM3.5 17.5001H2.75C2.75 17.9143 3.08579 18.2501 3.5 18.2501V17.5001ZM3.5 14.0001L2.96967 13.4698C2.82902 13.6104 2.75 13.8012 2.75 14.0001H3.5ZM13.3813 4.11883L13.9116 4.64916L13.9116 4.64916L13.3813 4.11883ZM14.6187 4.11883L14.0884 4.64916L14.0884 4.64916L14.6187 4.11883ZM16.8813 6.38139L17.4116 5.85106V5.85106L16.8813 6.38139ZM16.8813 7.61883L16.351 7.0885L16.8813 7.61883ZM7 16.7501H3.5V18.2501H7V16.7501ZM4.25 17.5001V14.0001H2.75V17.5001H4.25ZM4.03033 14.5304L13.9116 4.64916L12.851 3.5885L2.96967 13.4698L4.03033 14.5304ZM14.0884 4.64916L16.351 6.91172L17.4116 5.85106L15.149 3.5885L14.0884 4.64916ZM16.351 7.0885L6.46967 16.9698L7.53033 18.0304L17.4116 8.14916L16.351 7.0885ZM16.351 6.91172C16.3998 6.96054 16.3998 7.03968 16.351 7.0885L17.4116 8.14916C18.0462 7.51456 18.0462 6.48567 17.4116 5.85106L16.351 6.91172ZM13.9116 4.64916C13.9604 4.60035 14.0396 4.60035 14.0884 4.64916L15.149 3.5885C14.5144 2.9539 13.4856 2.9539 12.851 3.5885L13.9116 4.64916Z" fill="#AAAAAA"/>
<path d="M10.5 7L14 10.5" stroke="#AAAAAA" stroke-width="1.5" stroke-linecap="round" stroke-linejoin="round"/>
</svg>
