<svg width="18" height="20" viewBox="0 0 18 20" fill="none" xmlns="http://www.w3.org/2000/svg">
<path d="M10.5 0.75H7.5C6.5335 0.75 5.75 1.5335 5.75 2.5C5.75 3.4665 6.5335 4.25 7.5 4.25H10.5C11.4665 4.25 12.25 3.4665 12.25 2.5C12.25 1.5335 11.4665 0.75 10.5 0.75Z" stroke="#AAAAAA" stroke-width="1.5"/>
<path fill-rule="evenodd" clip-rule="evenodd" d="M5.04646 2.03308C5.01596 2.19385 5 2.35977 5 2.52942C5 2.88286 5.06927 3.22012 5.19498 3.52837C4.66343 3.54751 4.20914 3.57952 3.81078 3.63308C2.88786 3.75716 2.49287 3.97161 2.23223 4.23224C1.9716 4.49287 1.75715 4.88787 1.63307 5.81079C1.50319 6.77686 1.5 8.072 1.5 10V12C1.5 13.928 1.50319 15.2231 1.63307 16.1892C1.75715 17.1121 1.9716 17.5071 2.23223 17.7678C2.49287 18.0284 2.88786 18.2429 3.81078 18.3669C4.77686 18.4968 6.07198 18.5 8 18.5H10C11.928 18.5 13.2231 18.4968 14.1892 18.3669C15.1121 18.2429 15.5071 18.0284 15.7678 17.7678C16.0284 17.5071 16.2428 17.1121 16.3669 16.1892C16.4968 15.2231 16.5 13.928 16.5 12V10C16.5 8.072 16.4968 6.77686 16.3669 5.81079C16.2428 4.88787 16.0284 4.49287 15.7678 4.23224C15.5071 3.97161 15.1121 3.75716 14.1892 3.63308C13.7909 3.57952 13.3366 3.54751 12.805 3.52837C12.9307 3.22012 13 2.88286 13 2.52942C13 2.35977 12.984 2.19385 12.9535 2.03308C14.8533 2.10863 16.0136 2.35674 16.8284 3.17158C18 4.34315 18 6.22877 18 10V12C18 15.7712 18 17.6569 16.8284 18.8284C15.6569 20 13.7712 20 10 20H8C4.22876 20 2.34315 20 1.17157 18.8284C-1.19209e-07 17.6569 0 15.7712 0 12V10C0 6.22877 -1.19209e-07 4.34315 1.17157 3.17158C1.98641 2.35674 3.14665 2.10863 5.04646 2.03308Z" fill="#AAAAAA"/>
<path d="M7 11.5L8.5 13L11.5 10" stroke="#AAAAAA" stroke-width="1.5" stroke-linecap="round" stroke-linejoin="round"/>
</svg>
