<svg width="19" height="19" viewBox="0 0 19 19" fill="none" xmlns="http://www.w3.org/2000/svg">
<path d="M9.23733 12.1641C10.615 12.1641 11.7317 11.0473 11.7317 9.6697C11.7317 8.29208 10.615 7.17529 9.23733 7.17529C7.8597 7.17529 6.74292 8.29208 6.74292 9.6697C6.74292 11.0473 7.8597 12.1641 9.23733 12.1641Z" stroke="#AAAAAA" stroke-width="1.2" stroke-miterlimit="10" stroke-linecap="round" stroke-linejoin="round"/>
<path d="M15.9443 9.66946C15.9443 9.65837 15.9443 9.65837 15.9443 9.64728C15.9443 8.46105 16.4321 7.34134 17.3855 6.64291L17.4631 6.58748L16.0108 4.05981C14.9354 4.5476 13.6938 4.48109 12.6738 3.89351L12.5075 3.79374C11.4876 3.22834 10.8113 2.17514 10.6894 1H7.77371C7.65176 2.17514 6.9755 3.21725 5.95556 3.81591L5.78927 3.9046C4.76933 4.49217 3.52767 4.55869 2.4523 4.07089L1 6.59856L1.0776 6.65399C2.04211 7.34134 2.5299 8.47214 2.51882 9.65837C2.51882 9.66946 2.51882 9.66946 2.51882 9.68054C2.51882 9.69163 2.51882 9.69163 2.51882 9.70272C2.51882 10.8889 2.03102 12.0087 1.0776 12.7071L1 12.7404L2.4523 15.268L2.5299 15.2348C3.60527 14.747 4.83585 14.88 5.85578 15.4787C5.86687 15.4897 5.87796 15.4897 5.88904 15.5008C6.92006 16.0884 7.64067 17.0862 7.76262 18.2613L7.77371 18.35H10.6894L10.7005 18.2613C10.8224 17.0862 11.543 16.0884 12.5741 15.5008C12.5851 15.4897 12.5962 15.4897 12.6073 15.4787C13.6273 14.8911 14.8578 14.747 15.9332 15.2348L16.0108 15.268L17.4631 12.7404L17.3855 12.6849C16.421 11.9976 15.9332 10.8668 15.9443 9.68054C15.9443 9.68054 15.9443 9.66946 15.9443 9.66946Z" stroke="#AAAAAA" stroke-width="1.2" stroke-miterlimit="10" stroke-linecap="square" stroke-linejoin="round"/>
</svg>
