<svg width="19" height="19" viewBox="0 0 19 19" fill="none" xmlns="http://www.w3.org/2000/svg">
<path d="M4.69998 8.00695C2.79998 8.00695 1.09998 6.42792 1.09998 4.45413C1.09998 2.48034 2.79998 1 4.69998 1C6.59998 1 8.19998 2.57903 8.19998 4.45413C8.19998 6.42792 6.59998 8.00695 4.69998 8.00695Z" stroke="#AAAAAA" stroke-width="1.3" stroke-miterlimit="10" stroke-linecap="round" stroke-linejoin="round"/>
<path d="M6.3 17.4811H3C2 17.4811 1 16.6916 1 15.7047V12.448C1 11.3624 1.9 10.5729 3 10.5729H6.3C7.3 10.5729 8.2 11.3624 8.2 12.448V15.7047C8.2 16.5929 7.3 17.4811 6.3 17.4811Z" stroke="#AAAAAA" stroke-width="1.3" stroke-miterlimit="10" stroke-linecap="round" stroke-linejoin="round"/>
<path d="M16 17.4811H12.7C11.7 17.4811 10.8 16.6916 10.8 15.606V2.8751C10.8 1.8882 11.6 1 12.7 1H16C17 1 17.9 1.78952 17.9 2.8751V15.606C17.9 16.5929 17 17.4811 16 17.4811Z" stroke="#AAAAAA" stroke-width="1.3" stroke-miterlimit="10" stroke-linecap="round" stroke-linejoin="round"/>
</svg>
