<svg width="23" height="23" viewBox="0 0 23 23" fill="none" xmlns="http://www.w3.org/2000/svg">
<path fill-rule="evenodd" clip-rule="evenodd" d="M0.71875 10.7812C0.71875 10.3843 1.04055 10.0625 1.4375 10.0625H21.5625C21.9595 10.0625 22.2812 10.3843 22.2812 10.7812C22.2812 11.1782 21.9595 11.5 21.5625 11.5H1.4375C1.04055 11.5 0.71875 11.1782 0.71875 10.7812Z" fill="#AAAAAA"/>
<path fill-rule="evenodd" clip-rule="evenodd" d="M16.5312 15.8125C16.9282 15.8125 17.25 16.1343 17.25 16.5312V18.6875H19.4062V16.5312C19.4062 16.1343 19.728 15.8125 20.125 15.8125C20.522 15.8125 20.8438 16.1343 20.8438 16.5312V18.6875C20.8438 19.0687 20.6923 19.4344 20.4227 19.704C20.1531 19.9736 19.7875 20.125 19.4062 20.125H17.25C16.8688 20.125 16.5031 19.9736 16.2335 19.704C15.9639 19.4344 15.8125 19.0687 15.8125 18.6875V16.5312C15.8125 16.1343 16.1343 15.8125 16.5312 15.8125Z" fill="#AAAAAA"/>
<path fill-rule="evenodd" clip-rule="evenodd" d="M2.875 15.8125C3.27195 15.8125 3.59375 16.1343 3.59375 16.5312V18.6875H5.75V16.5312C5.75 16.1343 6.0718 15.8125 6.46875 15.8125C6.8657 15.8125 7.1875 16.1343 7.1875 16.5312V18.6875C7.1875 19.0687 7.03605 19.4344 6.76647 19.704C6.49688 19.9736 6.13125 20.125 5.75 20.125H3.59375C3.2125 20.125 2.84687 19.9736 2.57728 19.704C2.3077 19.4344 2.15625 19.0687 2.15625 18.6875V16.5312C2.15625 16.1343 2.47805 15.8125 2.875 15.8125Z" fill="#AAAAAA"/>
<path fill-rule="evenodd" clip-rule="evenodd" d="M5.03125 13.6562C5.03125 13.2593 5.35305 12.9375 5.75 12.9375H7.1875C7.58445 12.9375 7.90625 13.2593 7.90625 13.6562C7.90625 14.0532 7.58445 14.375 7.1875 14.375H5.75C5.35305 14.375 5.03125 14.0532 5.03125 13.6562Z" fill="#AAAAAA"/>
<path fill-rule="evenodd" clip-rule="evenodd" d="M15.0938 13.6562C15.0938 13.2593 15.4155 12.9375 15.8125 12.9375H17.25C17.647 12.9375 17.9688 13.2593 17.9688 13.6562C17.9688 14.0532 17.647 14.375 17.25 14.375H15.8125C15.4155 14.375 15.0938 14.0532 15.0938 13.6562Z" fill="#AAAAAA"/>
<path fill-rule="evenodd" clip-rule="evenodd" d="M6.21719 3.59375H16.7857C17.0644 3.59488 17.3368 3.677 17.5697 3.83013C17.8018 3.98274 17.9847 4.1993 18.0963 4.45362C18.0967 4.4545 18.097 4.45538 18.0974 4.45626L20.7817 10.4891C20.8226 10.581 20.8438 10.6806 20.8438 10.7812V16.5312C20.8438 16.9282 20.522 17.25 20.125 17.25H2.875C2.47805 17.25 2.15625 16.9282 2.15625 16.5312V10.7812C2.15625 10.6806 2.1774 10.581 2.21832 10.4891L4.90379 4.4535C5.01539 4.19924 5.19825 3.98271 5.4303 3.83013C5.66319 3.677 5.93558 3.59488 6.2143 3.59376L6.21719 3.59375ZM6.22007 5.03125L6.21803 5.03594L3.59375 10.9339V15.8125H19.4062V10.9339L16.7799 5.03125L6.22007 5.03125Z" fill="#AAAAAA"/>
</svg>
