<svg width="21" height="21" viewBox="0 0 21 21" fill="none" xmlns="http://www.w3.org/2000/svg">
<path d="M5.80767 0H3.29233C1.47403 0 0 1.47403 0 3.29233V5.80767C0 7.62597 1.47403 9.1 3.29233 9.1H5.80767C7.62597 9.1 9.1 7.62597 9.1 5.80767V3.29233C9.1 1.47403 7.62597 0 5.80767 0Z" fill="#C2C1C1"/>
<path d="M5.80767 11.375H3.29233C1.47403 11.375 0 12.849 0 14.6673V17.1827C0 19.001 1.47403 20.475 3.29233 20.475H5.80767C7.62597 20.475 9.1 19.001 9.1 17.1827V14.6673C9.1 12.849 7.62597 11.375 5.80767 11.375Z" fill="#C2C1C1"/>
<path d="M17.1827 0H14.6673C12.849 0 11.375 1.47403 11.375 3.29233V5.80767C11.375 7.62597 12.849 9.1 14.6673 9.1H17.1827C19.001 9.1 20.475 7.62597 20.475 5.80767V3.29233C20.475 1.47403 19.001 0 17.1827 0Z" fill="#C2C1C1"/>
<path d="M17.1827 11.375H14.6673C12.849 11.375 11.375 12.849 11.375 14.6673V17.1827C11.375 19.001 12.849 20.475 14.6673 20.475H17.1827C19.001 20.475 20.475 19.001 20.475 17.1827V14.6673C20.475 12.849 19.001 11.375 17.1827 11.375Z" fill="#C2C1C1"/>
</svg>
