<svg width="27" height="28" viewBox="0 0 27 28" fill="none" xmlns="http://www.w3.org/2000/svg">
<path d="M3.56641 8.67999L13.5001 14.6416L23.3664 8.71496" stroke="#5372E7" stroke-width="2.5" stroke-linecap="round" stroke-linejoin="round"/>
<path d="M13.5 25.2116V14.6299" stroke="#5372E7" stroke-width="2.5" stroke-linecap="round" stroke-linejoin="round"/>
<path d="M11.1714 2.89331L5.16394 6.35835C3.80269 7.14002 2.68896 9.09999 2.68896 10.71V17.3017C2.68896 18.9117 3.80269 20.8717 5.16394 21.6533L11.1714 25.1184C12.4539 25.8534 14.5577 25.8534 15.8402 25.1184L21.8477 21.6533C23.209 20.8717 24.3227 18.9117 24.3227 17.3017V10.71C24.3227 9.09999 23.209 7.14002 21.8477 6.35835L15.8402 2.89331C14.5464 2.14665 12.4539 2.14665 11.1714 2.89331Z" stroke="#5372E7" stroke-width="2.5" stroke-linecap="round" stroke-linejoin="round"/>
<path d="M19.125 15.4467V11.1767L8.44873 4.78333" stroke="#5372E7" stroke-width="2.5" stroke-linecap="round" stroke-linejoin="round"/>
</svg>
