<svg width="20" height="20" viewBox="0 0 20 20" fill="none" xmlns="http://www.w3.org/2000/svg">
<path d="M5 5V4.25C4.58579 4.25 4.25 4.58579 4.25 5H5ZM15 5H15.75C15.75 4.58579 15.4142 4.25 15 4.25V5ZM5 5.75H15V4.25H5V5.75ZM14.25 5V16.6667H15.75V5H14.25ZM14.1667 16.75H5.83333V18.25H14.1667V16.75ZM5.75 16.6667V5H4.25V16.6667H5.75ZM5.83333 16.75C5.78731 16.75 5.75 16.7127 5.75 16.6667H4.25C4.25 17.5411 4.95888 18.25 5.83333 18.25V16.75ZM14.25 16.6667C14.25 16.7127 14.2127 16.75 14.1667 16.75V18.25C15.0411 18.25 15.75 17.5411 15.75 16.6667H14.25Z" fill="#AAAAAA"/>
<path d="M3.33331 5H16.6666" stroke="#AAAAAA" stroke-width="1.5" stroke-linecap="round" stroke-linejoin="round"/>
<path d="M13.3334 5V5.75C13.7476 5.75 14.0834 5.41421 14.0834 5H13.3334ZM6.66669 5H5.91669C5.91669 5.41421 6.25247 5.75 6.66669 5.75V5ZM7.50002 3.25H12.5V1.75H7.50002V3.25ZM12.5834 3.33333V5H14.0834V3.33333H12.5834ZM13.3334 4.25H6.66669V5.75H13.3334V4.25ZM7.41669 5V3.33333H5.91669V5H7.41669ZM12.5 3.25C12.546 3.25 12.5834 3.28731 12.5834 3.33333H14.0834C14.0834 2.45888 13.3745 1.75 12.5 1.75V3.25ZM7.50002 1.75C6.62557 1.75 5.91669 2.45888 5.91669 3.33333H7.41669C7.41669 3.28731 7.454 3.25 7.50002 3.25V1.75Z" fill="#AAAAAA"/>
</svg>
